<svg id="レイヤー_1" data-name="レイヤー 1" xmlns="http://www.w3.org/2000/svg" viewBox="0 0 226.77 211.9"><defs><style>.cls-1{fill:#999;}.cls-2{fill:#666;}.cls-3{fill:#ccc;}.cls-4{fill:#333;}</style></defs><path class="cls-1" d="M162.53,68.87a48.4,48.4,0,0,0-48.4,48.41A48.41,48.41,0,0,0,65.72,68.87a48.4,48.4,0,0,0,48.41-48.4,48.4,48.4,0,0,0,48.4,48.4" transform="translate(-15.75 -20.47)"/><path class="cls-2" d="M89.32,171.2a18.48,18.48,0,0,0-18.48,18.48,18.49,18.49,0,0,0-18.5-18.48,18.5,18.5,0,0,0,18.5-18.5,18.49,18.49,0,0,0,18.48,18.5" transform="translate(-15.75 -20.47)"/><path class="cls-3" d="M190.88,189.68A29.92,29.92,0,0,0,161,219.6a29.92,29.92,0,0,0-29.92-29.92A29.91,29.91,0,0,0,161,159.77a29.91,29.91,0,0,0,29.91,29.91" transform="translate(-15.75 -20.47)"/><path class="cls-2" d="M30.67,160.32a7.06,7.06,0,0,0-7.06,7.06,7.07,7.07,0,0,0-7.07-7.06,7.08,7.08,0,0,0,7.07-7.07,7.07,7.07,0,0,0,7.06,7.07" transform="translate(-15.75 -20.47)"/><path class="cls-4" d="M38.6,64.19A11.42,11.42,0,0,0,27.18,75.62,11.43,11.43,0,0,0,15.75,64.19,11.43,11.43,0,0,0,27.18,52.76,11.42,11.42,0,0,0,38.6,64.19" transform="translate(-15.75 -20.47)"/><path class="cls-3" d="M145.17,131.77a7.05,7.05,0,0,0-7,7.06,7.07,7.07,0,0,0-7.07-7.06,7.07,7.07,0,0,0,7.07-7.06,7.05,7.05,0,0,0,7,7.06" transform="translate(-15.75 -20.47)"/><path class="cls-4" d="M121.19,189.68a7.06,7.06,0,0,0-7.06,7.07,7.06,7.06,0,0,0-7.06-7.07,7.06,7.06,0,0,0,7.06-7.06,7.06,7.06,0,0,0,7.06,7.06" transform="translate(-15.75 -20.47)"/><path d="M138.11,160.32a7.06,7.06,0,0,0-7.06,7.06,7.06,7.06,0,0,0-7.06-7.06,7.07,7.07,0,0,0,7.06-7.07,7.07,7.07,0,0,0,7.06,7.07" transform="translate(-15.75 -20.47)"/><path class="cls-3" d="M87,117.09A29.92,29.92,0,0,0,57.1,147a29.93,29.93,0,0,0-29.92-29.92A29.92,29.92,0,0,0,57.1,87.17,29.91,29.91,0,0,0,87,117.09" transform="translate(-15.75 -20.47)"/><path class="cls-2" d="M206.05,110.93a29.93,29.93,0,0,0-29.92,29.92,29.92,29.92,0,0,0-29.91-29.92A29.91,29.91,0,0,0,176.13,81a29.92,29.92,0,0,0,29.92,29.92" transform="translate(-15.75 -20.47)"/><path class="cls-3" d="M242.52,182.62A18.48,18.48,0,0,0,224,201.11a18.5,18.5,0,0,0-18.5-18.49A18.5,18.5,0,0,0,224,164.13a18.48,18.48,0,0,0,18.48,18.49" transform="translate(-15.75 -20.47)"/><path class="cls-4" d="M75.58,213.88A18.48,18.48,0,0,0,57.1,232.36a18.49,18.49,0,0,0-18.5-18.48,18.5,18.5,0,0,0,18.5-18.5,18.49,18.49,0,0,0,18.48,18.5" transform="translate(-15.75 -20.47)"/><path class="cls-4" d="M121.19,135.75a18.48,18.48,0,0,0-18.49,18.48,18.48,18.48,0,0,0-18.49-18.48,18.49,18.49,0,0,0,18.49-18.5,18.49,18.49,0,0,0,18.49,18.5" transform="translate(-15.75 -20.47)"/></svg>