<svg id="レイヤー_1" data-name="レイヤー 1" xmlns="http://www.w3.org/2000/svg" viewBox="0 0 287.43 136.34"><defs><style>.cls-1{fill:#666;}.cls-2{fill:none;stroke:#000;stroke-miterlimit:10;stroke-width:0.55px;}.cls-3{fill:#ccc;}</style></defs><polygon class="cls-1" points="205.69 30.83 219.88 55.4 191.53 55.4 191.51 55.38 205.69 30.83"/><polygon points="239.5 30.83 225.34 55.36 253.65 55.36 239.5 30.83"/><polygon points="232.3 40.05 232.33 40.05 232.31 40.02 232.3 40.05"/><polygon class="cls-2" points="222.59 53.81 222.59 53.81 236.76 29.26 208.44 29.26 208.43 29.29 222.59 53.81"/><polygon points="236.76 26.1 222.6 1.57 208.43 26.12 236.75 26.12 236.76 26.1"/><polygon class="cls-3" points="287.43 0 225.32 0 256.37 53.79 287.43 0"/><polygon class="cls-3" points="106.49 0 219.88 0 163.19 98.2 106.49 0"/><polygon class="cls-1" points="99.68 105.24 113.86 80.66 85.52 80.66 85.5 80.69 99.68 105.24"/><polygon points="133.48 105.23 119.32 80.71 147.64 80.71 133.48 105.23"/><polygon points="126.29 96.02 126.32 96.02 126.3 96.04 126.29 96.02"/><polygon class="cls-3" points="116.58 82.25 116.58 82.25 130.75 106.8 102.43 106.8 102.42 106.78 116.58 82.25"/><polygon class="cls-1" points="130.75 109.97 116.59 134.49 102.42 109.94 130.74 109.94 130.75 109.97"/><polygon points="181.42 136.06 119.31 136.06 150.36 82.28 181.42 136.06"/><polygon class="cls-2" points="0.48 136.06 113.87 136.06 57.17 37.87 0.48 136.06"/></svg>