<?xml version="1.0" encoding="utf-8"?>
<!-- Generator: Adobe Illustrator 24.1.1, SVG Export Plug-In . SVG Version: 6.00 Build 0)  -->
<svg version="1.1" id="レイヤー_1" xmlns="http://www.w3.org/2000/svg" xmlns:xlink="http://www.w3.org/1999/xlink" x="0px"
	 y="0px" viewBox="0 0 393.83 170.08" style="enable-background:new 0 0 393.83 170.08;" xml:space="preserve">
<style type="text/css">
	.st0{fill:#FFFFFF;}
	.st1{fill:#040000;}
</style>
<g>
	<g>
		<path class="st0" d="M67.77,107.5c-4.42-6.13-10.46-11.21-17.84-14.53c-1.33-0.6-2.67-1.12-4.01-1.58
			c-4.96-1.68-10.04-2.43-15.05-2.33c6.45-0.41,12.61-3.09,17.31-7.6c2.48-2.38,4.56-5.26,6.05-8.59l0,0
			c1.49-3.33,2.27-6.79,2.4-10.23c0.25-6.71-1.98-13.29-6.2-18.46c3.33,3.99,7.4,7.45,12.13,10.13c1.22,0.7,2.49,1.34,3.8,1.93
			c7.4,3.32,15.22,4.46,22.74,3.68c9.17-0.94,17.9-4.72,24.87-10.83c1.47-1.29,2.87-2.69,4.18-4.19c-5.79-7.5-9.25-16.9-9.25-27.11
			c0-6.33,1.33-12.35,3.72-17.8c0,0-0.01,0-0.01,0c-11.19,25.13-36.38,42.65-65.67,42.65c-13.15,0-25.48-3.54-36.08-9.71
			c11.56,8.02,19.13,21.38,19.13,36.51c0,19.47-12.53,36.02-29.98,42.01c0,0.01,0.01,0.02,0.01,0.03
			c6.58-1.99,13.56-3.06,20.79-3.06c22.29,0,42.21,10.16,55.38,26.1c0.01-0.41,0.02-0.81,0.02-1.22
			C76.15,124.04,73.17,114.99,67.77,107.5z"/>
		<path class="st0" d="M96.36,131.27L96.36,131.27c-3.52,0.36-6.94,1.4-10.06,3.04c-2.41,1.27-4.63,2.92-6.58,4.87
			c6.3,9.01,10.59,19.52,12.21,30.89c-0.07-1.06-0.12-2.12-0.12-3.19c0-13.8,6.3-26.13,16.17-34.28c-0.39-0.13-0.78-0.27-1.17-0.39
			C103.36,131.21,99.81,130.92,96.36,131.27z"/>
		<rect x="96.36" y="131.27" transform="matrix(0.8112 -0.5848 0.5848 0.8112 -58.5703 81.138)" class="st0" width="0" height="0"/>
		<path class="st0" d="M183.32,50.54c-7.9,7.25-18.44,11.68-30.02,11.68c-12.9,0-24.5-5.5-32.62-14.28
			c-0.15,2.75,0.1,5.48,0.75,8.11c0.8,3.25,2.19,6.35,4.11,9.12c0.1,0.14,0.2,0.28,0.3,0.42c0,0,0,0,0,0c0,0,0,0,0,0
			c0.11,0.15,0.22,0.3,0.33,0.45c1.98,2.62,4.44,4.92,7.34,6.74c1.06,0.67,2.19,1.27,3.36,1.8c5.08,2.28,10.48,2.89,15.59,2.07l0,0
			c-5.19,0.92-10.19,2.76-14.73,5.41c-7.73,4.51-14.18,11.4-18.12,20.18c0,0,0,0,0,0.01c-3.65,8.13-4.65,16.78-3.38,24.98
			c6.01-3.04,12.8-4.76,20-4.76c15.32,0,28.84,7.76,36.82,19.57c-7.51-11.35-11.89-24.96-11.89-39.6
			C161.16,82.04,169.66,63.62,183.32,50.54z"/>
		<path class="st1" d="M119.62,102.25C119.62,102.25,119.62,102.25,119.62,102.25c3.95-8.79,10.4-15.67,18.13-20.19
			c4.55-2.66,9.54-4.49,14.73-5.41l0,0c-5.11,0.82-10.51,0.2-15.59-2.07c-1.18-0.53-2.3-1.13-3.36-1.8
			c-2.9-1.81-5.36-4.11-7.34-6.74c-0.11-0.15-0.22-0.3-0.33-0.45c0,0,0,0,0,0c0,0,0,0,0,0c-0.1-0.14-0.2-0.28-0.3-0.42
			c-1.92-2.77-3.31-5.86-4.11-9.12c-0.65-2.63-0.91-5.36-0.75-8.11c-0.9-0.97-1.74-1.98-2.55-3.02c-1.31,1.5-2.7,2.9-4.18,4.19
			c-6.97,6.12-15.7,9.9-24.87,10.83c-7.52,0.78-15.34-0.36-22.74-3.68c-1.31-0.59-2.58-1.23-3.8-1.93
			c-4.73-2.69-8.8-6.14-12.13-10.13c4.22,5.17,6.45,11.75,6.2,18.46c-0.13,3.43-0.91,6.9-2.4,10.23l0,0
			c-1.49,3.33-3.57,6.21-6.05,8.59c-4.7,4.5-10.86,7.18-17.31,7.6c5-0.1,10.09,0.65,15.05,2.33c1.35,0.46,2.69,0.98,4.01,1.58
			c7.39,3.32,13.43,8.4,17.84,14.53c5.4,7.49,8.38,16.53,8.43,25.82c0,0.4-0.01,0.81-0.02,1.22c1.24,1.5,2.42,3.05,3.53,4.65
			c1.96-1.96,4.18-3.6,6.58-4.87c3.12-1.64,6.53-2.68,10.05-3.04l0,0l0,0l0,0l0,0l0,0c3.45-0.36,7-0.06,10.46,0.95
			c0.39,0.11,0.78,0.25,1.17,0.39c2.53-2.08,5.29-3.88,8.24-5.37C114.96,119.03,115.96,110.38,119.62,102.25z"/>
		<path class="st0" d="M108.29,104.2c-2.42-0.76-4.57-2.39-5.93-4.76c-2.9-5.01-1.18-11.43,3.84-14.32
			c1.29-0.75,2.68-1.19,4.08-1.34c0,0,0,0,0,0c-6.46,0.68-13.01-2.4-16.47-8.39c-1.55-2.69-2.28-5.63-2.27-8.52
			c-0.28,3.31-2.11,6.43-5.21,8.22c-3.98,2.3-8.84,1.69-12.13-1.17c0,0,0,0,0,0.01c1.18,1.11,2.23,2.41,3.08,3.89
			c4.28,7.4,2.33,16.69-4.21,21.82c0.21-0.14,0.42-0.27,0.64-0.4c5.01-2.9,11.43-1.18,14.32,3.84c1.81,3.13,1.82,6.81,0.35,9.84
			c1.43-2.88,3.7-5.38,6.69-7.11C99.24,103.38,104.01,102.95,108.29,104.2z"/>
		<path class="st0" d="M124.6,34.75c0.22-0.48,0.45-0.95,0.69-1.42c-1.59,2.96-3.48,5.67-5.61,8.11c0.81,1.05,1.66,2.06,2.55,3.02
			C122.41,41.21,123.18,37.92,124.6,34.75z"/>
		<path class="st0" d="M112.53,136.17c5.21,2.34,9.33,6.1,12.12,10.62l0,0c-2.88-4.58-4.9-9.66-5.96-14.95
			c-0.13-0.65-0.24-1.31-0.35-1.97c-2.95,1.49-5.71,3.29-8.24,5.37C110.91,135.51,111.73,135.81,112.53,136.17z"/>
		<path class="st0" d="M72.28,151.49c0.08-0.19,0.16-0.38,0.25-0.57c1.41-3.15,3.36-5.88,5.66-8.18c-1.12-1.6-2.29-3.15-3.53-4.65
			C74.56,142.57,73.79,147.08,72.28,151.49z"/>
	</g>
	<g>
		<path class="st0" d="M222.02,56.8c4.54,6.52,11.92,12.83,18.58,16.2c-0.95,0.99-1.9,2.33-2.64,3.54
			c-2.77-1.64-5.62-3.72-8.34-6.01v3.54h-18.53v-3.37c-2.55,2.2-5.36,4.28-8.21,6.01c-0.52-0.95-1.68-2.38-2.55-3.2
			c7.34-4.19,14.43-11.19,17.67-16.72H222.02z M231.48,78.7l3.15,0.95c-2.07,4.97-5.23,11.79-7.91,17.15l-4.28-1.12
			c2.12-4.02,4.54-9.07,6.26-12.96h-23.24v-3.8h25.27L231.48,78.7z M229.41,70.36c-3.67-3.11-7-6.52-9.16-9.55
			c-2.03,2.98-5.1,6.39-8.73,9.55H229.41z"/>
		<path class="st0" d="M244.05,86.35l3.54-3.11c3.07,2.51,7.09,6.57,9.55,9.55l-3.67,3.11C250.74,92.57,247.07,88.9,244.05,86.35z"
			/>
		<path class="st0" d="M286.77,90.63c-0.86-1.04-2.59-2.77-4.19-4.28v10.24h-3.89V86.48c-1.94,2.9-4.23,5.53-6.44,7.26
			c-0.6-0.91-1.77-2.2-2.59-2.89c2.94-1.94,6.18-5.53,8.25-9.07h-7.21v-3.41h7.99v-3.93h-8.12v-3.41h4.45
			c-0.13-1.56-0.78-3.85-1.51-5.57l2.94-0.73h-5.31v-3.33h7.56v-4.1h3.89v4.1h7.56v3.33h-5.23l3.02,0.69
			c-0.82,2.03-1.64,4.15-2.38,5.62h5.05v3.41h-8.04v3.93h7.65v3.41h-7.65v0.73c1.56,1.08,5.53,4.32,6.52,5.14L286.77,90.63z
			 M276.62,64.7c0.86,1.81,1.56,4.1,1.73,5.66l-2.51,0.65h9.5l-2.98-0.65c0.69-1.6,1.51-3.93,1.94-5.66H276.62z M309.85,75.03h-4.54
			v21.39h-3.89V75.03h-5.57v0.39c0,6.39-0.78,15.38-6.74,21.39c-0.48-0.86-1.94-2.25-2.85-2.77c5.23-5.31,5.75-12.7,5.75-18.66
			V60.43l2.68,0.78c4.23-0.99,8.81-2.33,11.49-3.72l3.24,2.89c-3.72,1.69-8.9,3.02-13.57,3.93v7h14V75.03z"/>
		<path class="st0" d="M330.49,62.76c-0.13,0.73-0.3,1.6-0.52,2.55c2.64-0.39,5.31-0.86,7.82-1.51v4.28
			c-2.72,0.65-5.75,1.12-8.68,1.47c-0.43,1.86-0.91,3.84-1.38,5.66c-1.56,6.09-4.49,14.99-6.83,19.87l-4.71-1.6
			c2.55-4.41,5.7-13.31,7.34-19.36c0.35-1.34,0.69-2.77,1.04-4.19c-1.25,0.04-2.42,0.09-3.5,0.09c-1.99,0-3.59-0.04-5.14-0.17
			l-0.09-4.23c2.12,0.26,3.63,0.35,5.27,0.35c1.34,0,2.81-0.04,4.32-0.17c0.22-1.3,0.43-2.42,0.52-3.24
			c0.22-1.34,0.26-2.94,0.17-3.89l5.18,0.39C331.05,60.12,330.67,61.9,330.49,62.76z M335.68,86.61c0,1.94,1.17,3.72,6.7,3.72
			c2.85,0,5.79-0.35,8.64-0.86l-0.13,4.36c-2.38,0.3-5.27,0.61-8.55,0.61c-7.04,0-10.84-2.29-10.84-6.57c0-1.81,0.35-3.63,0.73-5.4
			l4.02,0.39C335.89,84.19,335.68,85.53,335.68,86.61z M342.81,71.79c2.51,0,5.1,0.09,7.56,0.35l-0.13,4.15
			c-2.2-0.3-4.75-0.56-7.34-0.56c-2.81,0-5.44,0.17-8.17,0.48v-4.02C337.06,71.96,340.04,71.79,342.81,71.79z"/>
		<path class="st0" d="M365.92,63.8c-0.73,3.54-2.12,11.66-2.12,16.29c0,1.51,0.09,3.02,0.26,4.62c0.73-1.77,1.6-3.89,2.29-5.49
			l2.16,1.73c-1.12,3.28-2.64,7.91-3.07,10.07c-0.13,0.6-0.26,1.51-0.22,1.99c0,0.43,0.04,1.08,0.09,1.6l-3.93,0.26
			c-0.86-3.02-1.6-8.12-1.6-13.95c0-6.44,1.38-13.78,1.86-17.24c0.17-1.08,0.35-2.42,0.39-3.59l4.8,0.43
			C366.52,61.29,366.09,63.02,365.92,63.8z M376.24,85.44c0,1.94,1.51,3.54,6.74,3.54c3.89,0,7.13-0.35,10.76-1.17l0.09,4.62
			c-2.72,0.52-6.31,0.86-10.93,0.86c-7.34,0-10.71-2.55-10.71-6.74c0-1.56,0.22-3.2,0.73-5.31l3.89,0.35
			C376.41,83.11,376.24,84.27,376.24,85.44z M392.49,63.62v4.41c-4.93,0.48-13.09,0.52-18.1,0l-0.04-4.41
			C379.31,64.4,387.99,64.23,392.49,63.62z"/>
	</g>
	<g>
		<path class="st0" d="M240.78,128.76h-8.85v4.86h-2.05v-4.86h-8.62v-1.9h8.62v-2.87h-6.41v-9.2h14.99v9.2h-6.52v2.87h8.85V128.76z
			 M225.43,118.52h10.95v-1.97h-10.95V118.52z M225.43,122.21h10.95v-2.03h-10.95V122.21z"/>
		<path class="st0" d="M248.73,122.67c0.58,0.52,2.29,2.27,2.7,2.76l-1.14,1.53c-0.3-0.56-0.95-1.51-1.56-2.35v9.05h-1.92v-8.42
			c-0.67,1.86-1.47,3.63-2.27,4.82c-0.19-0.58-0.67-1.4-0.97-1.9c1.12-1.47,2.27-4.08,2.96-6.37h-2.68v-1.81h2.96v-3.02
			c-0.86,0.19-1.71,0.32-2.53,0.45c-0.11-0.43-0.37-1.08-0.58-1.49c2.22-0.39,4.73-0.99,6.16-1.66l1.47,1.4l-0.15,0.06
			c3.56-0.35,7.6-0.97,9.93-1.75l1.47,1.47c-2.94,0.95-7.24,1.51-10.91,1.84c-0.06-0.43-0.32-1.12-0.54-1.53
			c-0.71,0.28-1.53,0.54-2.4,0.76v3.48h2.42v1.81h-2.42V122.67z M253.14,117.72c0.71,1.1,1.32,2.57,1.53,3.56l-1.71,0.58
			c-0.19-0.99-0.8-2.51-1.43-3.63L253.14,117.72z M251.78,122.41h1.84v11.19h-1.84V122.41z M255.15,122.77h7.75v10.8H261v-0.99
			h-4.06v1.1h-1.79V122.77z M256.51,121.37c-0.11-1.01-0.56-2.59-1.08-3.78l1.68-0.45c0.56,1.17,1.04,2.7,1.19,3.71L256.51,121.37z
			 M256.94,124.48v2.31H261v-2.31H256.94z M261,130.87v-2.42h-4.06v2.42H261z M258.99,122.19c0.78-1.47,1.75-3.76,2.27-5.46
			l1.99,0.58c-0.78,1.9-1.77,4.04-2.59,5.44L258.99,122.19z"/>
		<path class="st0" d="M285.15,115.28v18.16h-2.07v-1.32h-13.5v1.32h-1.99v-18.16H285.15z M269.58,117.2v5.4h5.62v-5.4H269.58z
			 M269.58,130.1h5.62v-5.49h-5.62V130.1z M283.08,117.2h-5.85v5.4h5.85V117.2z M283.08,130.1v-5.49h-5.85v5.49H283.08z"/>
		<path class="st0" d="M308.54,115.93c-0.93,1.77-2.35,3.71-3.8,5.1c1.25,1.14,2.76,2.03,4.56,2.59c-0.43,0.37-1.02,1.17-1.27,1.68
			c-1.86-0.69-3.39-1.66-4.69-2.92v1.08h-8.21v-1.04c-1.51,1.4-3.26,2.46-5.14,3.17c-0.24-0.47-0.71-1.19-1.08-1.58
			c1.51-0.5,2.94-1.27,4.21-2.29c-0.6-0.54-1.49-1.23-2.31-1.79c-0.26,0.22-0.52,0.41-0.8,0.6c-0.28-0.43-0.89-1.04-1.3-1.3
			c2.38-1.56,4.02-3.67,4.86-5.44l1.92,0.35c-0.17,0.35-0.37,0.67-0.56,1.02h2.72l0.32-0.07l1.23,0.5
			c-0.69,2.44-1.86,4.47-3.35,6.07h6.78c-1.68-1.9-2.87-4.32-3.67-7.24l1.73-0.37c0.6,2.18,1.53,4.1,2.83,5.68
			c0.82-0.84,1.62-1.92,2.2-2.94h-3.87v-1.66h4.99l0.37-0.11L308.54,115.93z M295.26,128.74c-1.01,1.75-2.72,3.46-4.28,4.51
			c-0.39-0.37-1.19-1.01-1.66-1.32c1.58-0.91,3.09-2.31,3.93-3.8L295.26,128.74z M300.08,127.37v4.21c0,0.99-0.22,1.51-0.99,1.77
			c-0.78,0.3-1.92,0.3-3.56,0.3c-0.11-0.54-0.39-1.3-0.67-1.79c1.21,0.04,2.42,0.04,2.76,0.02c0.37,0,0.45-0.09,0.45-0.35v-4.17
			h-7.13v-1.81h16.39v1.81H300.08z M291.87,119.04c0.8,0.54,1.71,1.19,2.33,1.71c0.37-0.35,0.71-0.73,1.02-1.14
			c-0.6-0.45-1.51-1.06-2.38-1.58C292.54,118.37,292.22,118.71,291.87,119.04z M294.03,116.55c-0.11,0.15-0.24,0.32-0.35,0.48
			c0.8,0.45,1.71,0.99,2.33,1.43c0.37-0.6,0.69-1.23,0.95-1.9H294.03z M304.03,128.15c1.53,1.17,3.46,2.92,4.36,4.1l-1.75,1.1
			c-0.84-1.14-2.72-2.98-4.25-4.21L304.03,128.15z"/>
		<path class="st0" d="M325.36,119.51c0,2.55-1.13,4.13-4.26,7.21l-4.01,4.01h8.32c0.2,0,0.3,0.1,0.3,0.33v1.56
			c0,0.23-0.1,0.33-0.3,0.33h-10.76c-0.23,0-0.35-0.08-0.4-0.3l-0.28-1.39c-0.05-0.23-0.03-0.4,0.13-0.6l5.12-5.12
			c3.1-3.18,3.78-4.23,3.76-5.9c0-2.02-1.29-3.2-3.25-3.2c-1.89,0-2.95,0.98-3.5,2.77c-0.05,0.23-0.23,0.3-0.45,0.23l-1.51-0.45
			c-0.18-0.08-0.28-0.23-0.2-0.48c0.81-2.67,2.57-4.28,5.72-4.28C323.22,114.22,325.36,116.36,325.36,119.51z"/>
		<path class="st0" d="M331.06,127.4v-7.36c0-3.68,2.27-5.82,5.77-5.82c3.53,0,5.75,2.24,5.75,5.82v7.36c0,3.58-2.19,5.82-5.75,5.82
			C333.35,133.22,331.06,131.08,331.06,127.4z M340.21,127.33v-7.21c0-2.52-1.36-3.68-3.38-3.68c-2.04,0-3.4,1.13-3.4,3.68v7.21
			c0,2.52,1.39,3.68,3.43,3.68C338.87,131.01,340.21,129.87,340.21,127.33z"/>
		<path class="st0" d="M359.28,119.51c0,2.55-1.13,4.13-4.26,7.21l-4.01,4.01h8.32c0.2,0,0.3,0.1,0.3,0.33v1.56
			c0,0.23-0.1,0.33-0.3,0.33h-10.76c-0.23,0-0.35-0.08-0.4-0.3l-0.28-1.39c-0.05-0.23-0.03-0.4,0.13-0.6l5.12-5.12
			c3.1-3.18,3.78-4.23,3.76-5.9c0-2.02-1.29-3.2-3.25-3.2c-1.89,0-2.95,0.98-3.5,2.77c-0.05,0.23-0.23,0.3-0.45,0.23l-1.51-0.45
			c-0.18-0.08-0.28-0.23-0.2-0.48c0.81-2.67,2.57-4.28,5.72-4.28C357.14,114.22,359.28,116.36,359.28,119.51z"/>
		<path class="st0" d="M364.98,127.4v-7.36c0-3.68,2.27-5.82,5.77-5.82c3.53,0,5.75,2.24,5.75,5.82v7.36c0,3.58-2.19,5.82-5.75,5.82
			C367.27,133.22,364.98,131.08,364.98,127.4z M374.13,127.33v-7.21c0-2.52-1.36-3.68-3.38-3.68c-2.04,0-3.4,1.13-3.4,3.68v7.21
			c0,2.52,1.39,3.68,3.43,3.68C372.79,131.01,374.13,129.87,374.13,127.33z"/>
	</g>
</g>
</svg>
