<?xml version="1.0" encoding="utf-8"?>
<!-- Generator: Adobe Illustrator 24.1.1, SVG Export Plug-In . SVG Version: 6.00 Build 0)  -->
<svg version="1.1" id="レイヤー_1" xmlns="http://www.w3.org/2000/svg" xmlns:xlink="http://www.w3.org/1999/xlink" x="0px"
	 y="0px" viewBox="0 0 183.3 170.1" style="enable-background:new 0 0 183.3 170.1;" xml:space="preserve">
<style type="text/css">
	.st0{opacity:5.000000e-02;}
	.st1{fill:#040000;}
	.st2{fill:#FFFFFF;}
</style>
<g class="st0">
	<path class="st1" d="M67.8,107.5c-4.4-6.1-10.5-11.2-17.8-14.5c-1.3-0.6-2.7-1.1-4-1.6c-5-1.7-10-2.4-15-2.3
		c6.5-0.4,12.6-3.1,17.3-7.6c2.5-2.4,4.6-5.3,6-8.6l0,0c1.5-3.3,2.3-6.8,2.4-10.2c0.3-6.7-2-13.3-6.2-18.5c3.3,4,7.4,7.5,12.1,10.1
		c1.2,0.7,2.5,1.3,3.8,1.9c7.4,3.3,15.2,4.5,22.7,3.7C98.3,59,107,55.2,114,49.1c1.5-1.3,2.9-2.7,4.2-4.2
		c-5.8-7.5-9.3-16.9-9.3-27.1c0-6.3,1.3-12.3,3.7-17.8h0c-11.2,25.1-36.4,42.7-65.7,42.7c-13.2,0-25.5-3.5-36.1-9.7
		C22.4,40.9,30,54.3,30,69.4c0,19.5-12.5,36-30,42c0,0,0,0,0,0c6.6-2,13.6-3.1,20.8-3.1c22.3,0,42.2,10.2,55.4,26.1
		c0-0.4,0-0.8,0-1.2C76.2,124,73.2,115,67.8,107.5z"/>
	<path class="st1" d="M96.4,131.3L96.4,131.3c-3.5,0.4-6.9,1.4-10.1,3c-2.4,1.3-4.6,2.9-6.6,4.9c6.3,9,10.6,19.5,12.2,30.9
		c-0.1-1.1-0.1-2.1-0.1-3.2c0-13.8,6.3-26.1,16.2-34.3c-0.4-0.1-0.8-0.3-1.2-0.4C103.4,131.2,99.8,130.9,96.4,131.3z"/>
	<polygon class="st1" points="96.4,131.3 96.4,131.3 96.4,131.3 	"/>
	<path class="st1" d="M183.3,50.5c-7.9,7.3-18.4,11.7-30,11.7c-12.9,0-24.5-5.5-32.6-14.3c-0.2,2.8,0.1,5.5,0.8,8.1
		c0.8,3.3,2.2,6.3,4.1,9.1c0.1,0.1,0.2,0.3,0.3,0.4l0,0l0,0c0.1,0.2,0.2,0.3,0.3,0.4c2,2.6,4.4,4.9,7.3,6.7c1.1,0.7,2.2,1.3,3.4,1.8
		c5.1,2.3,10.5,2.9,15.6,2.1l0,0c-5.2,0.9-10.2,2.8-14.7,5.4c-7.7,4.5-14.2,11.4-18.1,20.2c0,0,0,0,0,0c-3.7,8.1-4.7,16.8-3.4,25
		c6-3,12.8-4.8,20-4.8c15.3,0,28.8,7.8,36.8,19.6c-7.5-11.4-11.9-25-11.9-39.6C161.2,82,169.7,63.6,183.3,50.5z"/>
	<path class="st2" d="M119.6,102.2L119.6,102.2c3.9-8.8,10.4-15.7,18.1-20.2c4.6-2.7,9.5-4.5,14.7-5.4l0,0
		c-5.1,0.8-10.5,0.2-15.6-2.1c-1.2-0.5-2.3-1.1-3.4-1.8c-2.9-1.8-5.4-4.1-7.3-6.7c-0.1-0.2-0.2-0.3-0.3-0.4l0,0l0,0
		c-0.1-0.1-0.2-0.3-0.3-0.4c-1.9-2.8-3.3-5.9-4.1-9.1c-0.7-2.6-0.9-5.4-0.8-8.1c-0.9-1-1.7-2-2.6-3c-1.3,1.5-2.7,2.9-4.2,4.2
		c-7,6.1-15.7,9.9-24.9,10.8c-7.5,0.8-15.3-0.4-22.7-3.7c-1.3-0.6-2.6-1.2-3.8-1.9c-4.7-2.7-8.8-6.1-12.1-10.1
		c4.2,5.2,6.5,11.8,6.2,18.5c-0.1,3.4-0.9,6.9-2.4,10.2l0,0c-1.5,3.3-3.6,6.2-6,8.6c-4.7,4.5-10.9,7.2-17.3,7.6
		c5-0.1,10.1,0.7,15.1,2.3c1.3,0.5,2.7,1,4,1.6c7.4,3.3,13.4,8.4,17.8,14.5c5.4,7.5,8.4,16.5,8.4,25.8c0,0.4,0,0.8,0,1.2
		c1.2,1.5,2.4,3.1,3.5,4.6c2-2,4.2-3.6,6.6-4.9c3.1-1.6,6.5-2.7,10.1-3l0,0l0,0l0,0l0,0l0,0c3.4-0.4,7-0.1,10.5,0.9
		c0.4,0.1,0.8,0.3,1.2,0.4c2.5-2.1,5.3-3.9,8.2-5.4C115,119,116,110.4,119.6,102.2z"/>
	<path class="st1" d="M108.3,104.2c-2.4-0.8-4.6-2.4-5.9-4.8c-2.9-5-1.2-11.4,3.8-14.3c1.3-0.8,2.7-1.2,4.1-1.3l0,0
		c-6.5,0.7-13-2.4-16.5-8.4c-1.6-2.7-2.3-5.6-2.3-8.5c-0.3,3.3-2.1,6.4-5.2,8.2c-4,2.3-8.8,1.7-12.1-1.2c0,0,0,0,0,0
		c1.2,1.1,2.2,2.4,3.1,3.9c4.3,7.4,2.3,16.7-4.2,21.8c0.2-0.1,0.4-0.3,0.6-0.4c5-2.9,11.4-1.2,14.3,3.8c1.8,3.1,1.8,6.8,0.3,9.8
		c1.4-2.9,3.7-5.4,6.7-7.1C99.2,103.4,104,102.9,108.3,104.2z"/>
	<path class="st1" d="M124.6,34.7c0.2-0.5,0.4-1,0.7-1.4c-1.6,3-3.5,5.7-5.6,8.1c0.8,1,1.7,2.1,2.6,3
		C122.4,41.2,123.2,37.9,124.6,34.7z"/>
	<path class="st1" d="M112.5,136.2c5.2,2.3,9.3,6.1,12.1,10.6l0,0c-2.9-4.6-4.9-9.7-6-14.9c-0.1-0.6-0.2-1.3-0.3-2
		c-2.9,1.5-5.7,3.3-8.2,5.4C110.9,135.5,111.7,135.8,112.5,136.2z"/>
	<path class="st1" d="M72.3,151.5c0.1-0.2,0.2-0.4,0.3-0.6c1.4-3.1,3.4-5.9,5.7-8.2c-1.1-1.6-2.3-3.1-3.5-4.6
		C74.6,142.6,73.8,147.1,72.3,151.5z"/>
</g>
</svg>
