<?xml version="1.0" encoding="utf-8"?>
<!-- Generator: Adobe Illustrator 24.1.1, SVG Export Plug-In . SVG Version: 6.00 Build 0)  -->
<svg version="1.1" id="レイヤー_1" xmlns="http://www.w3.org/2000/svg" xmlns:xlink="http://www.w3.org/1999/xlink" x="0px"
	 y="0px" viewBox="0 0 183.32 170.08" style="enable-background:new 0 0 183.32 170.08;" xml:space="preserve">
<style type="text/css">
	.st0{fill:#FFFFFF;}
	.st1{fill:#040000;}
</style>
<g>
	<path class="st0" d="M67.77,107.5c-4.42-6.13-10.46-11.21-17.84-14.53c-1.33-0.6-2.67-1.12-4.01-1.58
		c-4.96-1.68-10.04-2.43-15.05-2.33c6.45-0.41,12.61-3.09,17.31-7.6c2.48-2.38,4.56-5.26,6.05-8.59l0,0
		c1.49-3.33,2.27-6.79,2.4-10.23c0.25-6.71-1.98-13.29-6.2-18.46c3.33,3.99,7.4,7.45,12.13,10.13c1.22,0.7,2.49,1.34,3.8,1.93
		c7.4,3.32,15.22,4.46,22.74,3.68c9.17-0.94,17.9-4.72,24.87-10.83c1.47-1.29,2.87-2.69,4.18-4.19c-5.79-7.5-9.25-16.9-9.25-27.11
		c0-6.33,1.33-12.35,3.72-17.8c0,0-0.01,0-0.01,0c-11.19,25.13-36.38,42.65-65.67,42.65c-13.15,0-25.48-3.54-36.08-9.71
		c11.56,8.02,19.13,21.38,19.13,36.51c0,19.47-12.53,36.02-29.98,42.01c0,0.01,0.01,0.02,0.01,0.03c6.58-1.99,13.56-3.06,20.79-3.06
		c22.29,0,42.21,10.16,55.38,26.1c0.01-0.41,0.02-0.81,0.02-1.22C76.15,124.04,73.17,114.99,67.77,107.5z"/>
	<path class="st0" d="M96.36,131.27L96.36,131.27c-3.52,0.36-6.94,1.4-10.06,3.04c-2.41,1.27-4.63,2.92-6.58,4.87
		c6.3,9.01,10.59,19.52,12.21,30.89c-0.07-1.06-0.12-2.12-0.12-3.19c0-13.8,6.3-26.13,16.17-34.28c-0.39-0.13-0.78-0.27-1.17-0.39
		C103.36,131.21,99.81,130.92,96.36,131.27z"/>
	<rect x="96.36" y="131.27" transform="matrix(0.8112 -0.5848 0.5848 0.8112 -58.5703 81.138)" class="st0" width="0" height="0"/>
	<path class="st0" d="M183.32,50.54c-7.9,7.25-18.44,11.68-30.02,11.68c-12.9,0-24.5-5.5-32.62-14.28c-0.15,2.75,0.1,5.48,0.75,8.11
		c0.8,3.25,2.19,6.35,4.11,9.12c0.1,0.14,0.2,0.28,0.3,0.42c0,0,0,0,0,0c0,0,0,0,0,0c0.11,0.15,0.22,0.3,0.33,0.45
		c1.98,2.62,4.44,4.92,7.34,6.74c1.06,0.67,2.19,1.27,3.36,1.8c5.08,2.28,10.48,2.89,15.59,2.07l0,0
		c-5.19,0.92-10.19,2.76-14.73,5.41c-7.73,4.51-14.18,11.4-18.12,20.18c0,0,0,0,0,0.01c-3.65,8.13-4.65,16.78-3.38,24.98
		c6.01-3.04,12.8-4.76,20-4.76c15.32,0,28.84,7.76,36.82,19.57c-7.51-11.35-11.89-24.96-11.89-39.6
		C161.16,82.04,169.66,63.62,183.32,50.54z"/>
	<path class="st1" d="M119.62,102.25C119.62,102.25,119.62,102.25,119.62,102.25c3.95-8.79,10.4-15.67,18.13-20.19
		c4.55-2.66,9.54-4.49,14.73-5.41l0,0c-5.11,0.82-10.51,0.2-15.59-2.07c-1.18-0.53-2.3-1.13-3.36-1.8c-2.9-1.81-5.36-4.11-7.34-6.74
		c-0.11-0.15-0.22-0.3-0.33-0.45c0,0,0,0,0,0c0,0,0,0,0,0c-0.1-0.14-0.2-0.28-0.3-0.42c-1.92-2.77-3.31-5.86-4.11-9.12
		c-0.65-2.63-0.91-5.36-0.75-8.11c-0.9-0.97-1.74-1.98-2.55-3.02c-1.31,1.5-2.7,2.9-4.18,4.19c-6.97,6.12-15.7,9.9-24.87,10.83
		c-7.52,0.78-15.34-0.36-22.74-3.68c-1.31-0.59-2.58-1.23-3.8-1.93c-4.73-2.69-8.8-6.14-12.13-10.13c4.22,5.17,6.45,11.75,6.2,18.46
		c-0.13,3.43-0.91,6.9-2.4,10.23l0,0c-1.49,3.33-3.57,6.21-6.05,8.59c-4.7,4.5-10.86,7.18-17.31,7.6c5-0.1,10.09,0.65,15.05,2.33
		c1.35,0.46,2.69,0.98,4.01,1.58c7.39,3.32,13.43,8.4,17.84,14.53c5.4,7.49,8.38,16.53,8.43,25.82c0,0.4-0.01,0.81-0.02,1.22
		c1.24,1.5,2.42,3.05,3.53,4.65c1.96-1.96,4.18-3.6,6.58-4.87c3.12-1.64,6.53-2.68,10.05-3.04l0,0l0,0l0,0l0,0l0,0
		c3.45-0.36,7-0.06,10.46,0.95c0.39,0.11,0.78,0.25,1.17,0.39c2.53-2.08,5.29-3.88,8.24-5.37
		C114.96,119.03,115.96,110.38,119.62,102.25z"/>
	<path class="st0" d="M108.29,104.2c-2.42-0.76-4.57-2.39-5.93-4.76c-2.9-5.01-1.18-11.43,3.84-14.32c1.29-0.75,2.68-1.19,4.08-1.34
		c0,0,0,0,0,0c-6.46,0.68-13.01-2.4-16.47-8.39c-1.55-2.69-2.28-5.63-2.27-8.52c-0.28,3.31-2.11,6.43-5.21,8.22
		c-3.98,2.3-8.84,1.69-12.13-1.17c0,0,0,0,0,0.01c1.18,1.11,2.23,2.41,3.08,3.89c4.28,7.4,2.33,16.69-4.21,21.82
		c0.21-0.14,0.42-0.27,0.64-0.4c5.01-2.9,11.43-1.18,14.32,3.84c1.81,3.13,1.82,6.81,0.35,9.84c1.43-2.88,3.7-5.38,6.69-7.11
		C99.24,103.38,104.01,102.95,108.29,104.2z"/>
	<path class="st0" d="M124.6,34.75c0.22-0.48,0.45-0.95,0.69-1.42c-1.59,2.96-3.48,5.67-5.61,8.11c0.81,1.05,1.66,2.06,2.55,3.02
		C122.41,41.21,123.18,37.92,124.6,34.75z"/>
	<path class="st0" d="M112.53,136.17c5.21,2.34,9.33,6.1,12.12,10.62l0,0c-2.88-4.58-4.9-9.66-5.96-14.95
		c-0.13-0.65-0.24-1.31-0.35-1.97c-2.95,1.49-5.71,3.29-8.24,5.37C110.91,135.51,111.73,135.81,112.53,136.17z"/>
	<path class="st0" d="M72.28,151.49c0.08-0.19,0.16-0.38,0.25-0.57c1.41-3.15,3.36-5.88,5.66-8.18c-1.12-1.6-2.29-3.15-3.53-4.65
		C74.56,142.57,73.79,147.08,72.28,151.49z"/>
</g>
</svg>
