<?xml version="1.0" encoding="utf-8"?>
<!-- Generator: Adobe Illustrator 24.1.1, SVG Export Plug-In . SVG Version: 6.00 Build 0)  -->
<svg version="1.1" id="レイヤー_1" xmlns="http://www.w3.org/2000/svg" xmlns:xlink="http://www.w3.org/1999/xlink" x="0px"
	 y="0px" viewBox="0 0 228.1 190.5" style="enable-background:new 0 0 228.1 190.5;" xml:space="preserve">
<style type="text/css">
	.st0{fill:#040000;}
	.st1{fill:none;stroke:#040000;stroke-width:0.5542;stroke-miterlimit:10;}
</style>
<polygon class="st0" points="832.5,86.3 832.5,86.3 832.5,86.3 "/>
<polygon class="st0" points="726.5,142.3 726.5,142.3 726.5,142.3 "/>
<g>
	<polygon class="st0" points="812.5,286.3 812.5,286.3 812.5,286.3 	"/>
	<polygon class="st1" points="56.8,107.1 56.8,107.1 70.9,82.6 42.6,82.6 42.6,82.6 	"/>
	<polygon class="st0" points="706.5,342.3 706.5,342.3 706.5,342.3 	"/>
	<polygon class="st1" points="62.7,116.4 176.1,116.4 119.4,18.2 	"/>
	<polygon class="st1" points="113.1,181.9 173.8,181.9 143.5,129.4 	"/>
</g>
<polygon class="st1" points="99.4,182.6 99.4,182.6 131.9,126.4 67.1,126.4 67,126.4 "/>
<polygon class="st1" points="81.7,62.6 81.7,62.6 114.2,6.4 49.4,6.4 49.3,6.5 "/>
<polygon class="st1" points="186.7,181.6 186.7,181.6 219.2,125.4 154.4,125.4 154.3,125.5 "/>
<polygon class="st1" points="190,116.4 190,116.4 246.7,18.2 133.4,18.2 133.3,18.3 "/>
<polygon class="st1" points="-28.3,182.4 85.1,182.4 28.4,84.2 "/>
<polygon class="st1" points="13.5,72.1 74.2,72.1 43.8,19.5 "/>
</svg>
