<?xml version="1.0" encoding="utf-8"?>
<!-- Generator: Adobe Illustrator 24.1.1, SVG Export Plug-In . SVG Version: 6.00 Build 0)  -->
<svg version="1.1" id="レイヤー_1" xmlns="http://www.w3.org/2000/svg" xmlns:xlink="http://www.w3.org/1999/xlink" x="0px"
	 y="0px" viewBox="0 0 291 203.6" style="enable-background:new 0 0 291 203.6;" xml:space="preserve">
<style type="text/css">
	.st0{fill:#040000;}
	.st1{fill:none;stroke:#040000;stroke-width:0.5542;stroke-miterlimit:10;}
</style>
<polygon class="st0" points="871.9,94.6 872,94.6 872,94.6 "/>
<polygon class="st0" points="765.9,150.6 766,150.6 765.9,150.6 "/>
<g>
	<polygon class="st0" points="850.9,294.6 851,294.6 851,294.6 	"/>
	<polygon class="st1" points="95.2,115.4 95.2,115.4 109.4,90.8 81.1,90.8 81.1,90.8 	"/>
	<polygon class="st0" points="744.9,350.6 745,350.6 744.9,350.6 	"/>
	<polygon class="st1" points="101.1,124.6 214.5,124.6 157.8,26.4 	"/>
	<polygon class="st1" points="151.6,190.2 212.3,190.2 181.9,137.6 	"/>
</g>
<polygon class="st1" points="137.9,190.9 137.9,190.9 170.4,134.6 105.5,134.6 105.5,134.7 "/>
<polygon class="st1" points="120.2,70.9 120.2,70.9 152.7,14.7 87.8,14.7 87.8,14.7 "/>
<polygon class="st1" points="225.2,189.9 225.2,189.9 257.7,133.7 192.8,133.7 192.8,133.7 "/>
<polygon class="st1" points="228.4,124.6 228.4,124.6 285.1,26.4 171.8,26.4 171.8,26.5 "/>
<polygon class="st1" points="10.1,190.6 123.5,190.6 66.8,92.4 "/>
<polygon class="st1" points="52,80.3 112.6,80.3 82.3,27.8 "/>
</svg>
