<?xml version="1.0" encoding="utf-8"?>
<!-- Generator: Adobe Illustrator 24.1.1, SVG Export Plug-In . SVG Version: 6.00 Build 0)  -->
<svg version="1.1" id="レイヤー_1" xmlns="http://www.w3.org/2000/svg" xmlns:xlink="http://www.w3.org/1999/xlink" x="0px"
	 y="0px" viewBox="0 0 205.9 133.6" style="enable-background:new 0 0 205.9 133.6;" xml:space="preserve">
<style type="text/css">
	.st0{fill:#040000;}
	.st1{fill:none;stroke:#040000;stroke-width:0.5542;stroke-miterlimit:10;}
</style>
<polygon class="st0" points="810.3,45.1 810.3,45.1 810.3,45 "/>
<polygon class="st0" points="704.3,101 704.3,101 704.3,101.1 "/>
<g>
	<polygon class="st0" points="790.3,245.1 790.3,245.1 790.3,245 	"/>
	<polygon class="st1" points="34.6,65.8 34.6,65.8 48.7,41.3 20.4,41.3 20.4,41.3 	"/>
	<polygon class="st0" points="684.3,301 684.3,301 684.3,301.1 	"/>
	<polygon class="st1" points="40.5,75.1 153.9,75.1 97.2,-23.1 	"/>
	<polygon class="st1" points="90.9,140.6 151.6,140.6 121.3,88.1 	"/>
</g>
<polygon class="st1" points="77.2,141.3 77.2,141.3 109.7,85.1 44.9,85.1 44.8,85.2 "/>
<polygon class="st1" points="59.5,21.4 59.5,21.4 92,-34.9 27.2,-34.9 27.1,-34.8 "/>
<polygon class="st1" points="164.5,140.4 164.5,140.4 197,84.1 132.2,84.1 132.1,84.2 "/>
<polygon class="st1" points="167.8,75.1 167.8,75.1 224.5,-23.1 111.2,-23.1 111.1,-23 "/>
<polygon class="st1" points="-50.5,141.1 62.9,141.1 6.2,42.9 "/>
<polygon class="st1" points="-8.7,30.8 52,30.8 21.6,-21.7 "/>
</svg>
